<svg xmlns="http://www.w3.org/2000/svg" version="1.1" xmlns:xlink="http://www.w3.org/1999/xlink" width="1500" height="1500" viewBox="0 0 1500 1500"><rect width="1500" height="1500" x="0" y="0" id="background" stroke="transparent" fill="#000000"></rect><svg xml:space="preserve" width="1000" height="1000" data-version="2" data-id="lg_BdnP6GUkkgmLi7scwg" viewBox="0 0 456 362" x="250" y="250"><rect width="100%" height="100%" fill="transparent"></rect><path fill="#fff" d="m95.55 352.345-88.71.48q-2.41 0-2.41-2.41l.96-340.07q0-1.94 1.94-1.94l92.57-.48q27.55-.73 49.79 12.57 22.48 13.29 35.89 35.89t13.41 49.91v142.12q0 28.52-13.77 52.21-14.02 23.44-37.22 37.34-23.21 13.9-52.45 14.38m4.35-285.21-34.57.49-.48 224.3h30.7q18.37 0 30.93-12.81 12.57-12.81 12.57-30.7v-142.6q0-15.71-11.6-27.44-11.6-11.72-27.55-11.24"></path><rect width="194.56" height="345.15" x="-97.28" y="-172.57" fill="none" rx="0" ry="0" transform="translate(102.21 180.75)"></rect><path fill="#fff" d="M290.34 357.665q-26.35 0-48.58-13.54-22-13.53-35.17-36.13-13.17-22.6-13.17-49.67v-22.72q0-2.66 2.41-2.66h55.6q1.93 0 1.93 2.66v22.72q0 16.19 10.88 27.92 10.87 11.72 26.1 11.72 15.47 0 26.34-11.97 10.88-11.96 10.88-27.67 0-18.13-23.69-31.66-3.86-2.42-10.03-5.93-6.16-3.5-14.62-8.09-8.46-4.59-16.43-9.07-7.98-4.47-15.47-8.58-27.07-15.95-40.25-40-13.17-24.05-13.17-54.02 0-27.55 13.54-49.79 13.53-21.99 35.41-34.92 21.87-12.93 47.49-12.93 26.34 0 48.34 13.05 21.99 13.29 35.17 35.29 13.17 21.99 13.17 49.3v40.61q0 1.93-1.93 1.93h-55.6q-1.93 0-1.93-1.93l-.48-40.61q0-17.4-10.88-28.28-10.88-10.87-25.86-10.87-15.23 0-26.1 11.6-10.88 11.6-10.88 27.55 0 16.2 6.89 27.07 6.89 10.88 25.26 20.79 1.93.97 8.94 4.83 7.01 3.87 15.59 8.58 8.58 4.72 15.59 8.46 7.01 3.75 8.46 4.47 24.65 13.78 39.03 33.84 14.38 20.06 14.38 49.31 0 28.28-13.05 50.76-13.29 22.47-35.29 35.53-21.99 13.05-48.82 13.05"></path><rect width="194.08" height="354.33" x="-97.04" y="-177.16" fill="none" rx="0" ry="0" transform="translate(290.96 181)"></rect><path fill="#fff" d="M448.63 352.825h-56.07q-2.42 0-2.42-2.41l.49-340.07q0-1.94 1.93-1.94h55.59q1.93 0 1.93 1.94l.49 340.07q0 2.41-1.94 2.41"></path><rect width="60.43" height="344.42" x="-30.21" y="-172.21" fill="none" rx="0" ry="0" transform="translate(420.86 181.12)"></rect></svg></svg>